<svg xmlns="http://www.w3.org/2000/svg" xmlns:xlink="http://www.w3.org/1999/xlink" viewBox="0 0 503.39 178.75"><defs><style>.cls-1{fill:#00b0d3;}.cls-2,.cls-3{fill:#99c7ab;}.cls-3,.cls-4{stroke:#99c7ab;stroke-miterlimit:10;}.cls-3{stroke-width:1.25px;}.cls-4{fill:none;stroke-width:1.66px;}.cls-5{fill:url(#Degradado_sin_nombre_12);}.cls-6{opacity:0.49;}.cls-7{fill:#fff;}</style><radialGradient id="Degradado_sin_nombre_12" cx="70.15" cy="34.86" r="128.89" gradientTransform="translate(89.65 -37.67) rotate(45)" gradientUnits="userSpaceOnUse"><stop offset="0" stop-color="#7bcced"/><stop offset="0.09" stop-color="#57c4e5"/><stop offset="0.19" stop-color="#38bddf"/><stop offset="0.29" stop-color="#1fb7da"/><stop offset="0.39" stop-color="#0eb3d6"/><stop offset="0.51" stop-color="#03b1d4"/><stop offset="0.65" stop-color="#00b0d3"/><stop offset="0.91" stop-color="#00a8c0"/></radialGradient></defs><g id="Layer_2" data-name="Layer 2"><g id="Capa_1" data-name="Capa 1"><path class="cls-1" d="M230.26,76.82a14.17,14.17,0,0,0-4.13-8.14l0,0,0,0a15.16,15.16,0,0,0-5-3,25.28,25.28,0,0,0-6-1.35,64.26,64.26,0,0,0-7.05-.34c-9.69,0-15.94,1.94-19.11,5.92a17.08,17.08,0,0,0-3.31,8.53A90.67,90.67,0,0,0,185,90c0,8,1.16,13.53,3.53,16.93a12.34,12.34,0,0,0,5.35,4.39,22.24,22.24,0,0,0,6.59,1.73,70.87,70.87,0,0,0,7.43.35,61.32,61.32,0,0,0,9.72-.67,17,17,0,0,0,7.8-3.25l0,0,0,0a14.09,14.09,0,0,0,4.8-8.7,71.93,71.93,0,0,0,.83-11.87v-.06A94.37,94.37,0,0,0,230.26,76.82ZM214.35,99.26a2.85,2.85,0,0,1-1.74.87,25.66,25.66,0,0,1-4.55.35,22.88,22.88,0,0,1-4.81-.42A2.18,2.18,0,0,1,201.67,99v0l0,0a7.87,7.87,0,0,1-.88-3.2c-.16-1.69-.25-4-.25-6.86a76.14,76.14,0,0,1,.31-7.66,5.13,5.13,0,0,1,1-2.92,3,3,0,0,1,1.72-1,38,38,0,0,1,4.57-.51,37.27,37.27,0,0,1,4.73.54,2.52,2.52,0,0,1,1.59,1,6,6,0,0,1,1,3.23c.18,1.92.28,4.4.28,7.36a64,64,0,0,1-.3,7.42A7.38,7.38,0,0,1,214.35,99.26Z"/><polygon class="cls-1" points="245.7 45.76 243.21 45.76 243.21 48.25 243.21 110.42 243.21 112.91 245.7 112.91 256.14 112.91 258.63 112.91 258.63 110.42 258.63 48.25 258.63 45.76 256.14 45.76 245.7 45.76"/><path class="cls-1" d="M303.15,64.42h-2.49V92.28c0,2.8-.48,4.91-1.37,6.09A4.69,4.69,0,0,1,297,100a16,16,0,0,1-4.42.48,12,12,0,0,1-3.14-.23,3.38,3.38,0,0,1-1.15-.68,1.48,1.48,0,0,1-.39-.87,20.8,20.8,0,0,1-.21-3.34V64.42H272.22v34.3c0,4.82,1.52,8.54,4.52,11.06s7.07,3.64,12.48,3.64c5,0,8.9-1,11.76-3v2.47h15V64.42H303.15Z"/><path class="cls-1" d="M352.63,91.29h-2.5v5.22c0,4-1.57,4-2.73,4a5.63,5.63,0,0,1-1.79-.19.46.46,0,0,1,0-.09,10.12,10.12,0,0,1-.24-2.69V77.43H362.1v-13H345.34v-10H329.91v10h-5.38v13h5.38v19.9c0,5.92,1.18,10,3.61,12.43a11,11,0,0,0,6.19,3,43.12,43.12,0,0,0,7.69.61c6.64,0,11.3-1.7,13.85-5l0,0v0c2.05-2.83,3.05-7.59,3.05-14.54V91.29h-11.7Z"/><polygon class="cls-1" points="375.35 64.42 372.85 64.42 372.85 66.91 372.85 110.42 372.85 112.91 375.35 112.91 385.71 112.91 388.2 112.91 388.2 110.42 388.2 66.91 388.2 64.42 385.71 64.42 375.35 64.42"/><polygon class="cls-1" points="375.35 45.76 372.85 45.76 372.85 48.25 372.85 57.11 372.85 59.6 375.35 59.6 385.71 59.6 388.2 59.6 388.2 57.11 388.2 48.25 388.2 45.76 385.71 45.76 375.35 45.76"/><path class="cls-1" d="M445,76.82a14.17,14.17,0,0,0-4.13-8.14l0,0,0,0a15.16,15.16,0,0,0-5-3,25.4,25.4,0,0,0-6-1.35,64.26,64.26,0,0,0-7.05-.34c-9.69,0-15.94,1.94-19.11,5.92a17.08,17.08,0,0,0-3.31,8.53A90.67,90.67,0,0,0,399.72,90c0,8,1.16,13.53,3.53,16.93a12.34,12.34,0,0,0,5.35,4.39,22.24,22.24,0,0,0,6.59,1.73,70.87,70.87,0,0,0,7.43.35,61.32,61.32,0,0,0,9.72-.67,17,17,0,0,0,7.8-3.25l0,0,0,0a14.09,14.09,0,0,0,4.8-8.7,71.93,71.93,0,0,0,.83-11.87v-.06A94.37,94.37,0,0,0,445,76.82ZM429.07,99.26a2.82,2.82,0,0,1-1.74.87,25.66,25.66,0,0,1-4.55.35,22.88,22.88,0,0,1-4.81-.42A2.18,2.18,0,0,1,416.39,99v0l0,0a7.77,7.77,0,0,1-.88-3.19c-.16-1.69-.25-4-.25-6.86a76.14,76.14,0,0,1,.31-7.66,5.13,5.13,0,0,1,.95-2.92,3,3,0,0,1,1.72-1,38.27,38.27,0,0,1,4.57-.51,37.27,37.27,0,0,1,4.73.54,2.52,2.52,0,0,1,1.59,1,6.09,6.09,0,0,1,.95,3.23c.18,1.92.28,4.4.28,7.36a64.09,64.09,0,0,1-.3,7.42A7.38,7.38,0,0,1,429.07,99.26Z"/><path class="cls-1" d="M500.89,72.4A11.5,11.5,0,0,0,495.31,66c-2.55-1.37-6-2.07-10.49-2.13h0a40.57,40.57,0,0,0-6.1.41,13.45,13.45,0,0,0-5.42,2.18V64.42H457.76v48.49h15.51V86.8a28.82,28.82,0,0,1,.45-5.88,4.39,4.39,0,0,1,1-2.19l.06,0,0-.05c1.17-1.24,3.29-1.86,6.31-1.86a9.18,9.18,0,0,1,4,.6,2,2,0,0,1,1.09,1.27,14.31,14.31,0,0,1,.5,4.42v29.85h15.5V81.74A27.66,27.66,0,0,0,500.89,72.4Z"/><path class="cls-2" d="M410,148.34V141.9h6.24L410,125.79l-8.76,22.55h-7.35l12.88-32.22h6.45l12.89,32.22Z"/><path class="cls-2" d="M439,148.34h-6.44V116.12h32.22v19.33H439ZM458.28,129v-6.44H439V129Z"/><path class="cls-2" d="M477.61,148.34h-6.44V116.12h32.22v19.33H477.61ZM496.94,129v-6.44H477.61V129Z"/><path class="cls-3" d="M168.43,79.39a2.1,2.1,0,1,1,1-2.8A2.1,2.1,0,0,1,168.43,79.39Z"/><path class="cls-4" d="M177.66,96.18a88.56,88.56,0,1,1-8.13-44.38s2.32,4.39-1.49,6.37-6.12-.34-7.09-2.34C141.86,16.57,95.36-.72,55.83,17.81A79,79,0,1,0,167.54,77.49"/><path class="cls-3" d="M178.55,98.09a2.1,2.1,0,1,1,1-2.8A2.11,2.11,0,0,1,178.55,98.09Z"/><circle class="cls-5" cx="90.29" cy="89.38" r="70.5" transform="translate(-36.75 90.03) rotate(-45)"/><g class="cls-6"><path class="cls-7" d="M51.84,43.2a2.54,2.54,0,0,1-1.66-.61,2.57,2.57,0,0,1-.3-3.61c.45-.53,11.25-13,35.14-15a2.57,2.57,0,0,1,.43,5.12C63.81,30.88,53.9,42.19,53.8,42.3A2.55,2.55,0,0,1,51.84,43.2Z"/></g><path class="cls-7" d="M89.6,38.58q20.27,0,30.81,11.52,7.78,9.43,7.78,19.85H103.48a9.7,9.7,0,0,0-3.5-6.46q-2.82-2.15-10.38-2.15-11.94,0-13.32,5.27A8.88,8.88,0,0,1,76,67.72q0,6.18,14.71,8.89,20.4,4.86,26.93,9.44,13.87,7.77,13.88,23,0,19.77-21.1,28A60.52,60.52,0,0,1,91,140.18q-16.17,0-27.76-7.77-10.75-8-12.91-17.22a37.87,37.87,0,0,1-1.11-9.71H72.53q2.77,7.22,6.28,9.16t10.51,1.94h3.33q12.63-.9,12.64-6.66,0-6.6-20.69-9.72-17.89-4.15-25-8.88-10.54-7.71-10.55-21.1,0-19.77,20-28A64,64,0,0,1,89.6,38.58Z"/></g></g></svg>