<svg xmlns="http://www.w3.org/2000/svg" xmlns:xlink="http://www.w3.org/1999/xlink" viewBox="0 0 113.15 112.17"><defs><style>.cls-1{fill:#99c7ab;stroke-width:1.03px;}.cls-1,.cls-2{stroke:#99c7ab;stroke-miterlimit:10;}.cls-2{fill:none;stroke-width:1.37px;}.cls-3{fill:url(#Degradado_sin_nombre_12);}.cls-4{opacity:0.49;}.cls-5{fill:#fff;}</style><radialGradient id="Degradado_sin_nombre_12" cx="44.06" cy="21.98" r="80.64" gradientTransform="translate(36.1 -20.94) rotate(30.35)" gradientUnits="userSpaceOnUse"><stop offset="0" stop-color="#7bcced"/><stop offset="0.09" stop-color="#57c4e5"/><stop offset="0.19" stop-color="#38bddf"/><stop offset="0.29" stop-color="#1fb7da"/><stop offset="0.39" stop-color="#0eb3d6"/><stop offset="0.51" stop-color="#03b1d4"/><stop offset="0.65" stop-color="#00b0d3"/><stop offset="0.91" stop-color="#00a8c0"/></radialGradient></defs><g id="Layer_2" data-name="Layer 2"><g id="Capa_1" data-name="Capa 1"><path class="cls-1" d="M105.55,49.84a1.32,1.32,0,1,1,.63-1.75A1.32,1.32,0,0,1,105.55,49.84Z"/><path class="cls-2" d="M111.32,60.34a55.4,55.4,0,1,1-5.08-27.76s1.44,2.74-.94,4a3,3,0,0,1-4.44-1.46C88.92,10.53,59.83-.29,35.1,11.31A49.45,49.45,0,1,0,105,48.64"/><path class="cls-1" d="M111.88,61.53a1.32,1.32,0,1,1,.63-1.75A1.31,1.31,0,0,1,111.88,61.53Z"/><circle class="cls-3" cx="56.66" cy="56.08" r="44.11" transform="translate(-20.57 36.31) rotate(-30.35)"/><g class="cls-4"><path class="cls-5" d="M32.6,27.19a1.57,1.57,0,0,1-1-.38,1.6,1.6,0,0,1-.19-2.25c.28-.34,7-8.16,22-9.4a1.61,1.61,0,1,1,.26,3.2c-13.53,1.13-19.74,8.2-19.8,8.27A1.6,1.6,0,0,1,32.6,27.19Z"/></g><path class="cls-5" d="M56.22,24.3q12.69,0,19.28,7.21a19.24,19.24,0,0,1,4.87,12.42H64.91a6.06,6.06,0,0,0-2.19-4c-1.18-.9-3.34-1.35-6.5-1.35q-7.45,0-8.33,3.3a5.12,5.12,0,0,1-.18.7q0,3.85,9.21,5.56,12.77,3,16.85,5.9,8.69,4.86,8.68,14.42,0,12.38-13.2,17.54a38,38,0,0,1-12.16,1.91A30.49,30.49,0,0,1,39.72,83Q33,78,31.65,72.24a23.42,23.42,0,0,1-.7-6.08H45.54q1.74,4.52,3.93,5.73a14,14,0,0,0,6.58,1.22h2.09Q66,72.54,66,68.94q0-4.12-12.94-6.08Q41.9,60.25,37.47,57.3a15.46,15.46,0,0,1-6.6-13.2q0-12.37,12.5-17.54A40,40,0,0,1,56.22,24.3Z"/></g></g></svg>