<svg xmlns="http://www.w3.org/2000/svg" xmlns:xlink="http://www.w3.org/1999/xlink" viewBox="0 0 578.44 216.75"><defs><style>.cls-1{fill:#009ed9;}.cls-2{fill:#00b0d3;}.cls-3,.cls-4{fill:#99c7ab;}.cls-4,.cls-5{stroke:#99c7ab;stroke-miterlimit:10;}.cls-4{stroke-width:1.25px;}.cls-5{fill:none;stroke-width:1.66px;}.cls-6{fill:url(#Degradado_sin_nombre_12);}.cls-7{opacity:0.49;}.cls-8{fill:#fff;}</style><radialGradient id="Degradado_sin_nombre_12" cx="112.04" cy="34.86" r="128.89" gradientTransform="translate(101.92 -67.29) rotate(45)" gradientUnits="userSpaceOnUse"><stop offset="0" stop-color="#7bcced"/><stop offset="0.09" stop-color="#57c4e5"/><stop offset="0.19" stop-color="#38bddf"/><stop offset="0.29" stop-color="#1fb7da"/><stop offset="0.39" stop-color="#0eb3d6"/><stop offset="0.51" stop-color="#03b1d4"/><stop offset="0.65" stop-color="#00b0d3"/><stop offset="0.91" stop-color="#00a8c0"/></radialGradient></defs><g id="Layer_2" data-name="Layer 2"><g id="Capa_1" data-name="Capa 1"><path class="cls-1" d="M9,202.51v-.27a5,5,0,0,0-.14-1.15,1.76,1.76,0,0,0-.46-.86,4.8,4.8,0,0,0-2.6-.49H5.31a7,7,0,0,0-1.58.14,2.39,2.39,0,0,0-1.06.62,2.17,2.17,0,0,0-.52,1.12A13.28,13.28,0,0,0,2,203.56a8.07,8.07,0,0,1,0,1c0,.65,0,1.15,0,1.49a12.37,12.37,0,0,0,.21,1.86,2.24,2.24,0,0,0,.6,1.15,4.67,4.67,0,0,0,3,.66,12.63,12.63,0,0,0,1.89-.1,2,2,0,0,0,1-.46,3.08,3.08,0,0,0,.54-2.2v-.42h1.9v.56a4.13,4.13,0,0,1-1,3.15c-.81.74-2.31,1.1-4.49,1.1a18.1,18.1,0,0,1-1.91-.11,5.36,5.36,0,0,1-1.35-.35,3.71,3.71,0,0,1-1.13-.73,3.37,3.37,0,0,1-1-1.83A23.72,23.72,0,0,1,0,204.9q0-1.6.09-2.58a6.52,6.52,0,0,1,.3-1.59,3.57,3.57,0,0,1,.66-1.13,3.28,3.28,0,0,1,1.34-1A5.23,5.23,0,0,1,4,198.25c.52-.05,1.16-.07,1.92-.07a10.13,10.13,0,0,1,2.29.24,4,4,0,0,1,1.52.61,2.66,2.66,0,0,1,1,1.49,8.06,8.06,0,0,1,.23,2Z"/><path class="cls-1" d="M35.25,209.86l0,0a2.4,2.4,0,0,1-1.45,1.2,9.05,9.05,0,0,1-2.51.29,10.91,10.91,0,0,1-3-.34,2.8,2.8,0,0,1-1.63-1.17,4.59,4.59,0,0,1-.55-2.36,1.16,1.16,0,0,0,.05-.34,4.05,4.05,0,0,1,.63-2.38,2.73,2.73,0,0,1,1.67-1,14.18,14.18,0,0,1,2.94-.24h.33a11.83,11.83,0,0,1,1.95.16c.91.25,1.4.61,1.49,1.11h.15v-2.28a3.58,3.58,0,0,0-.25-1.49,1.62,1.62,0,0,0-1-.92,6.73,6.73,0,0,0-2.21-.28h-.41a4.82,4.82,0,0,0-2.11.39,1.53,1.53,0,0,0-.85,1.47,1.39,1.39,0,0,1,0,.35h-2a3.66,3.66,0,0,1,1.2-3.11,4,4,0,0,1,1.73-.54,21.36,21.36,0,0,1,2.38-.12,13.42,13.42,0,0,1,2.69.22,3.4,3.4,0,0,1,1.7.83,4.5,4.5,0,0,1,1,3.28v8.65h-1.9Zm-6.75-4.3a1.55,1.55,0,0,0-.24.54q0,.26-.09.75a3.12,3.12,0,0,1-.13.74,4.2,4.2,0,0,0,.39,1.37,1.2,1.2,0,0,0,.57.52,2.78,2.78,0,0,0,.86.21c.32,0,.83.05,1.53.08a9.23,9.23,0,0,0,2.2-.21,2,2,0,0,0,1.21-.75,2.91,2.91,0,0,0,.4-1.66,1.7,1.7,0,0,0-1.05-1.81,8.31,8.31,0,0,0-2.82-.39,14,14,0,0,0-1.85.1A1.55,1.55,0,0,0,28.5,205.56Z"/><path class="cls-1" d="M53.14,192.83h2v18.33h-2Z"/><path class="cls-1" d="M71.1,192.83h2V195h-2Zm0,5.5h2v12.83h-2Z"/><path class="cls-1" d="M94.91,192.73v1.58c-.29,0-.69,0-1.19,0a3.38,3.38,0,0,0-1.59.27,2.06,2.06,0,0,0-.61,1.78v2H95v1.56H91.52v11.27H89.61V199.89h-2v-1.56h2v-1.89a3.77,3.77,0,0,1,.91-2.9,4.33,4.33,0,0,1,2.9-.86C94.13,192.68,94.62,192.7,94.91,192.73Z"/><path class="cls-1" d="M109.18,192.83h2V195h-2Zm0,5.5h2v12.83h-2Z"/><path class="cls-1" d="M135.71,202.51v-.27a4.48,4.48,0,0,0-.15-1.15,1.76,1.76,0,0,0-.46-.86,4.8,4.8,0,0,0-2.6-.49H132a7,7,0,0,0-1.58.14,2.39,2.39,0,0,0-1.06.62,2.25,2.25,0,0,0-.52,1.12,14.85,14.85,0,0,0-.19,1.94,6.47,6.47,0,0,1,.05,1,14.36,14.36,0,0,1-.05,1.49,12.37,12.37,0,0,0,.21,1.86,2.24,2.24,0,0,0,.6,1.15,4.67,4.67,0,0,0,3,.66,12.7,12.7,0,0,0,1.9-.1,2,2,0,0,0,1-.46A3.08,3.08,0,0,0,136,207v-.42h1.9v.56a4.13,4.13,0,0,1-1,3.15c-.81.74-2.31,1.1-4.49,1.1a17.72,17.72,0,0,1-1.9-.11,5.32,5.32,0,0,1-1.36-.35,3.55,3.55,0,0,1-1.12-.73,3.32,3.32,0,0,1-1-1.83,25.3,25.3,0,0,1-.23-3.43q0-1.6.09-2.58a6.47,6.47,0,0,1,.31-1.59,3.53,3.53,0,0,1,2-2.1,5.23,5.23,0,0,1,1.56-.38c.52-.05,1.16-.07,1.92-.07a10.06,10.06,0,0,1,2.29.24,4.11,4.11,0,0,1,1.53.61,2.69,2.69,0,0,1,1,1.49,7.61,7.61,0,0,1,.23,2Z"/><path class="cls-1" d="M162,209.86l0,0a2.37,2.37,0,0,1-1.45,1.2,9.05,9.05,0,0,1-2.51.29,10.91,10.91,0,0,1-3-.34,2.8,2.8,0,0,1-1.63-1.17,4.59,4.59,0,0,1-.55-2.36,1.16,1.16,0,0,0,0-.34,4.2,4.2,0,0,1,.63-2.38,2.73,2.73,0,0,1,1.67-1,14.22,14.22,0,0,1,2.95-.24h.32a11.83,11.83,0,0,1,2,.16c.91.25,1.4.61,1.49,1.11H162v-2.28a3.58,3.58,0,0,0-.25-1.49,1.62,1.62,0,0,0-1-.92,6.73,6.73,0,0,0-2.21-.28h-.41a4.82,4.82,0,0,0-2.11.39,1.55,1.55,0,0,0-.85,1.47,1.39,1.39,0,0,1,0,.35h-2a3.66,3.66,0,0,1,1.2-3.11,4,4,0,0,1,1.73-.54,21.36,21.36,0,0,1,2.38-.12,13.59,13.59,0,0,1,2.7.22,3.37,3.37,0,0,1,1.69.83,4.5,4.5,0,0,1,1,3.28v8.65H162Zm-6.75-4.3a1.55,1.55,0,0,0-.24.54q0,.26-.09.75a3.12,3.12,0,0,1-.13.74,4.2,4.2,0,0,0,.39,1.37,1.2,1.2,0,0,0,.57.52,2.86,2.86,0,0,0,.86.21c.33,0,.83.05,1.53.08a9.23,9.23,0,0,0,2.2-.21,2.1,2.1,0,0,0,1.22-.75,3,3,0,0,0,.39-1.66,1.7,1.7,0,0,0-1.05-1.81,8.2,8.2,0,0,0-2.81-.39,14.09,14.09,0,0,0-1.86.1A1.55,1.55,0,0,0,155.23,205.56Z"/><path class="cls-1" d="M188.67,199.94v-7.11h1.91v18.33h-1.91v-1.61h0a2.77,2.77,0,0,1-1.5,1.35,7,7,0,0,1-2.55.41,5.19,5.19,0,0,1-3.77-1.11,3.79,3.79,0,0,1-.9-1.45,7.42,7.42,0,0,1-.37-1.73c-.05-.59-.07-1.28-.07-2.07a3.69,3.69,0,0,0-.05-.66,15.71,15.71,0,0,1,.31-2.9,3.93,3.93,0,0,1,1-2,4.89,4.89,0,0,1,3.76-1.25,9,9,0,0,1,2.6.35,2.27,2.27,0,0,1,1.55,1.41Zm-3.69-.2a13.64,13.64,0,0,0-1.82.2,1.77,1.77,0,0,0-1.09.76,3.37,3.37,0,0,0-.5,1.51,22,22,0,0,0-.11,2.4,1.8,1.8,0,0,1-.05.49,19.76,19.76,0,0,0,.21,2.39,2.76,2.76,0,0,0,.6,1.42,1.92,1.92,0,0,0,.59.47,3.05,3.05,0,0,0,.74.24,7.26,7.26,0,0,0,1,.11l.65,0q2.13,0,2.76-1a3.64,3.64,0,0,0,.61-1.6,19.4,19.4,0,0,0,.12-2.41,8.13,8.13,0,0,0-.64-3.91C187.55,200.13,186.53,199.74,185,199.74Z"/><path class="cls-1" d="M211.6,198.18a18.83,18.83,0,0,1,3,.2,3.18,3.18,0,0,1,1.83.9,3.69,3.69,0,0,1,1,2.15,23.28,23.28,0,0,1,.21,3.47,20.26,20.26,0,0,1-.23,3.32,3.29,3.29,0,0,1-3,2.92,19.78,19.78,0,0,1-2.76.17,11.27,11.27,0,0,1-2.82-.3,2.88,2.88,0,0,1-1.75-1.24c-.57-.83-.86-2.35-.86-4.57a29.08,29.08,0,0,1,.16-3.43,4.33,4.33,0,0,1,.74-2.12,3.08,3.08,0,0,1,1.74-1.15A12.93,12.93,0,0,1,211.6,198.18Zm.31,1.56h-.61a3.17,3.17,0,0,0-2.4.71,2.51,2.51,0,0,0-.52,1.31,20.24,20.24,0,0,0-.18,2.38,2.65,2.65,0,0,1,.05.57,3.94,3.94,0,0,1-.05.68q0,1.38.15,2.19a3.11,3.11,0,0,0,.41,1.28,1.73,1.73,0,0,0,1.21.75,10.67,10.67,0,0,0,2,.16,11.82,11.82,0,0,0,1.83-.12,1.77,1.77,0,0,0,1.13-.59c.45-.52.68-1.65.68-3.4v-.95a24.49,24.49,0,0,0-.11-2.65,3,3,0,0,0-.52-1.56,1.81,1.81,0,0,0-1.19-.62A11.62,11.62,0,0,0,211.91,199.74Z"/><path class="cls-1" d="M243.46,201.65h-2c0-.77-.13-1.25-.37-1.42a5,5,0,0,0-2.3-.34H238q-1,0-1.65.06a2.65,2.65,0,0,0-1,.33c-.3.19-.46.69-.46,1.52a2.22,2.22,0,0,0,.38,1.44,2.1,2.1,0,0,0,1.23.42c.2,0,.57,0,1.11.05s1,0,1.24,0a11.67,11.67,0,0,1,2.45.21,3.62,3.62,0,0,1,1.52.66,2.46,2.46,0,0,1,.79,1.15,6.17,6.17,0,0,1,.25,1.77,3.75,3.75,0,0,1-.74,2.55,3.19,3.19,0,0,1-1.86,1,17.42,17.42,0,0,1-2.9.2,19.43,19.43,0,0,1-2.69-.17,4.31,4.31,0,0,1-2-.84,2.35,2.35,0,0,1-.86-2v-1.2h2v.49a10.7,10.7,0,0,0,.12,1.13.75.75,0,0,0,.39.48,3.54,3.54,0,0,0,1,.27,10.53,10.53,0,0,0,1.19.11l1.54,0a6.41,6.41,0,0,0,1.53-.15,1.56,1.56,0,0,0,.92-.59,2.2,2.2,0,0,0,.36-1.27,2.29,2.29,0,0,0-.45-1.65,1.23,1.23,0,0,0-.78-.34c-.35,0-1-.07-1.88-.08-1.38-.08-2.29-.14-2.72-.18a4.75,4.75,0,0,1-1.42-.39,2.57,2.57,0,0,1-1.23-1.1,5.16,5.16,0,0,1,0-4.17,2.5,2.5,0,0,1,1.13-1.06,4.35,4.35,0,0,1,1.4-.37q.69-.06,2.13-.09a25.44,25.44,0,0,1,2.57.11,4.2,4.2,0,0,1,1.73.55A3.1,3.1,0,0,1,243.46,201.65Z"/><path class="cls-1" d="M282.18,209.67v7.08h-2V198.33h2v1.56l0,.1a2.78,2.78,0,0,1,1.42-1.34,6,6,0,0,1,2.46-.47,9.2,9.2,0,0,1,2.38.28,3.19,3.19,0,0,1,1.58.87A4.35,4.35,0,0,1,291,201a9.52,9.52,0,0,1,.36,1.92c0,.64.06,1.39.06,2.28q0,3.57-1.27,5c-.68.76-2,1.15-3.91,1.15a8,8,0,0,1-2.46-.34,2.41,2.41,0,0,1-1.52-1.3Zm3.62.1c1.44,0,2.39-.3,2.86-.91a3,3,0,0,0,.56-1.46,23.11,23.11,0,0,0,.15-2.45,26.35,26.35,0,0,0-.13-2.74,2.75,2.75,0,0,0-.58-1.61,3.57,3.57,0,0,0-2.76-.86c-1.61,0-2.64.32-3.11,1a3.14,3.14,0,0,0-.48,1.28,15,15,0,0,0-.18,2,5.1,5.1,0,0,1,.05.9,7.27,7.27,0,0,0,.61,3.69A3.37,3.37,0,0,0,285.8,209.77Z"/><path class="cls-1" d="M315.68,209.86l0,0a2.43,2.43,0,0,1-1.45,1.2,9.05,9.05,0,0,1-2.51.29,10.86,10.86,0,0,1-3-.34A2.8,2.8,0,0,1,307,209.8a4.59,4.59,0,0,1-.55-2.36,1.16,1.16,0,0,0,0-.34,4.05,4.05,0,0,1,.63-2.38,2.73,2.73,0,0,1,1.67-1,14.18,14.18,0,0,1,2.94-.24h.32a11.66,11.66,0,0,1,2,.16c.91.25,1.41.61,1.5,1.11h.14v-2.28a3.6,3.6,0,0,0-.24-1.49,1.67,1.67,0,0,0-1-.92,6.77,6.77,0,0,0-2.21-.28h-.41a4.86,4.86,0,0,0-2.12.39,1.54,1.54,0,0,0-.84,1.47,1.53,1.53,0,0,1,0,.35h-2a3.66,3.66,0,0,1,1.2-3.11,4,4,0,0,1,1.73-.54,21.3,21.3,0,0,1,2.37-.12,13.46,13.46,0,0,1,2.7.22,3.4,3.4,0,0,1,1.7.83,4.5,4.5,0,0,1,1,3.28v8.65h-1.91Zm-6.74-4.3a1.59,1.59,0,0,0-.25.54,6.88,6.88,0,0,0-.08.75,3.12,3.12,0,0,1-.13.74,4.2,4.2,0,0,0,.39,1.37,1.2,1.2,0,0,0,.57.52,2.78,2.78,0,0,0,.86.21c.32,0,.83.05,1.53.08a9.28,9.28,0,0,0,2.2-.21,2.07,2.07,0,0,0,1.21-.75,3,3,0,0,0,.4-1.66,1.7,1.7,0,0,0-1.05-1.81,8.31,8.31,0,0,0-2.82-.39,14,14,0,0,0-1.85.1A1.53,1.53,0,0,0,308.94,205.56Z"/><path class="cls-1" d="M335.17,199.94h.05a2.69,2.69,0,0,1,1.44-1.37,6.63,6.63,0,0,1,2.13-.39c1.51,0,2.53.42,3,1.27a5.63,5.63,0,0,1,.59,2.88v.42h-1.81a5.64,5.64,0,0,0-.29-2.3c-.3-.47-1-.71-2-.71a3.43,3.43,0,0,0-2.24.73,3.72,3.72,0,0,0-.77,2.77v7.92h-1.95V198.33h1.91Z"/><path class="cls-1" d="M365.81,209.86l-.05,0a2.38,2.38,0,0,1-1.44,1.2,9.13,9.13,0,0,1-2.52.29,11,11,0,0,1-3-.34,2.83,2.83,0,0,1-1.63-1.17,4.69,4.69,0,0,1-.55-2.36.9.9,0,0,0,0-.34,4.2,4.2,0,0,1,.63-2.38,2.76,2.76,0,0,1,1.67-1,14.22,14.22,0,0,1,2.95-.24h.32a11.75,11.75,0,0,1,1.95.16c.91.25,1.41.61,1.49,1.11h.15v-2.28a3.6,3.6,0,0,0-.24-1.49,1.66,1.66,0,0,0-1-.92,6.68,6.68,0,0,0-2.21-.28H362a4.82,4.82,0,0,0-2.11.39,1.54,1.54,0,0,0-.84,1.47,2.5,2.5,0,0,1,0,.35h-2a3.66,3.66,0,0,1,1.19-3.11,4,4,0,0,1,1.74-.54,21,21,0,0,1,2.37-.12,13.46,13.46,0,0,1,2.7.22,3.44,3.44,0,0,1,1.7.83,4.5,4.5,0,0,1,1,3.28v8.65h-1.91Zm-6.74-4.3a1.42,1.42,0,0,0-.25.54q0,.26-.09.75a2.68,2.68,0,0,1-.13.74A3.94,3.94,0,0,0,359,209a1.2,1.2,0,0,0,.57.52,2.71,2.71,0,0,0,.86.21c.32,0,.83.05,1.52.08a9.23,9.23,0,0,0,2.2-.21,2.07,2.07,0,0,0,1.22-.75,3,3,0,0,0,.39-1.66,1.71,1.71,0,0,0-1-1.81,8.31,8.31,0,0,0-2.82-.39,13.8,13.8,0,0,0-1.85.1A1.53,1.53,0,0,0,359.07,205.56Z"/><path class="cls-1" d="M415.08,201.65h-2c0-.77-.12-1.25-.37-1.42a4.93,4.93,0,0,0-2.29-.34h-.81q-1,0-1.65.06a2.65,2.65,0,0,0-1,.33c-.31.19-.46.69-.46,1.52a2.22,2.22,0,0,0,.38,1.44,2.1,2.1,0,0,0,1.23.42c.2,0,.57,0,1.11.05s.95,0,1.24,0a11.74,11.74,0,0,1,2.45.21,3.58,3.58,0,0,1,1.51.66,2.48,2.48,0,0,1,.8,1.15,6.17,6.17,0,0,1,.25,1.77,3.7,3.7,0,0,1-.75,2.55,3.13,3.13,0,0,1-1.86,1,17.21,17.21,0,0,1-2.89.2,19.43,19.43,0,0,1-2.69-.17,4.39,4.39,0,0,1-2-.84,2.37,2.37,0,0,1-.85-2v-1.2h2v.49a10.7,10.7,0,0,0,.12,1.13.75.75,0,0,0,.39.48,3.56,3.56,0,0,0,1,.27,10.91,10.91,0,0,0,1.2.11l1.53,0a6.5,6.5,0,0,0,1.54-.15,1.6,1.6,0,0,0,.92-.59,2.13,2.13,0,0,0,.35-1.27A2.3,2.3,0,0,0,413,206a1.23,1.23,0,0,0-.78-.34c-.35,0-1-.07-1.88-.08-1.38-.08-2.29-.14-2.72-.18a4.89,4.89,0,0,1-1.43-.39,2.59,2.59,0,0,1-1.22-1.1,4.23,4.23,0,0,1-.45-2.12,4.39,4.39,0,0,1,.45-2.05,2.45,2.45,0,0,1,1.13-1.06,4.35,4.35,0,0,1,1.4-.37q.69-.06,2.13-.09a25.44,25.44,0,0,1,2.57.11,4.2,4.2,0,0,1,1.73.55A3.1,3.1,0,0,1,415.08,201.65Z"/><path class="cls-1" d="M441.6,202.94v2.25h-9.26v.95a11.27,11.27,0,0,0,.21,2.17,1.81,1.81,0,0,0,.84,1.09,2.28,2.28,0,0,0,.71.23,7.58,7.58,0,0,0,.93.1l1.27,0a12.72,12.72,0,0,0,1.89-.11,1.79,1.79,0,0,0,1-.46,1.32,1.32,0,0,0,.36-.69,7.36,7.36,0,0,0,.08-1.22h2a3.94,3.94,0,0,1-1,3.11,3.27,3.27,0,0,1-1.14.6,6.72,6.72,0,0,1-1.39.25q-.75.06-1.86.06a12.84,12.84,0,0,1-2.88-.31,3.53,3.53,0,0,1-1.89-1,4.65,4.65,0,0,1-.9-2.25,22.25,22.25,0,0,1-.2-3.15,18.53,18.53,0,0,1,.31-3.28,3.51,3.51,0,0,1,.94-1.9,3.77,3.77,0,0,1,1.85-1,12.19,12.19,0,0,1,2.67-.26c2,0,3.4.32,4.15.95a3.33,3.33,0,0,1,1,1.62A7.07,7.07,0,0,1,441.6,202.94Zm-2,.66c0-.91-.09-1.6-.15-2.06a2.21,2.21,0,0,0-.48-1.16c-.34-.42-1.23-.64-2.67-.64h-.39a15.17,15.17,0,0,0-1.82.18,2,2,0,0,0-1.09.58,6.05,6.05,0,0,0-.66,3.1Z"/><path class="cls-1" d="M458.79,199.94h0a2.69,2.69,0,0,1,1.44-1.37,6.57,6.57,0,0,1,2.12-.39c1.52,0,2.54.42,3.06,1.27a5.64,5.64,0,0,1,.58,2.88v.42h-1.8a5.41,5.41,0,0,0-.3-2.3c-.29-.47-1-.71-2-.71a3.41,3.41,0,0,0-2.24.73,3.72,3.72,0,0,0-.77,2.77v7.92h-2V198.33h1.91Z"/><path class="cls-1" d="M490.24,198.33l-4.3,12.83h-2.72L479,198.33h1.95l3.64,11.38h.05l3.52-11.38Z"/><path class="cls-1" d="M504.46,192.83h2V195h-2Zm0,5.5h2v12.83h-2Z"/><path class="cls-1" d="M524,199.94h0a2.74,2.74,0,0,1,1.45-1.37,6.52,6.52,0,0,1,2.12-.39c1.52,0,2.54.42,3.06,1.27a5.64,5.64,0,0,1,.58,2.88v.42h-1.81a5.47,5.47,0,0,0-.29-2.3c-.3-.47-1-.71-2-.71a3.41,3.41,0,0,0-2.24.73,3.72,3.72,0,0,0-.77,2.77v7.92h-2V198.33h1.91Z"/><path class="cls-1" d="M545.84,207.3v-7.41h-1.69v-1.56h1.69v-3.11h1.95v3.11h5v1.56h-5v7.87a3.53,3.53,0,0,0,.18,1.33.82.82,0,0,0,.48.5,5.45,5.45,0,0,0,1,.18c1,0,1.57-.29,1.76-.86a4.33,4.33,0,0,0,.15-1.32v-1h1.81v.64a4.83,4.83,0,0,1-.67,2.91,3.59,3.59,0,0,1-3.1,1.15,4.12,4.12,0,0,1-2.86-.76,2.36,2.36,0,0,1-.6-1.27A10.93,10.93,0,0,1,545.84,207.3Z"/><path class="cls-1" d="M578.44,202.94v2.25h-9.26v.95a11.48,11.48,0,0,0,.2,2.17,1.83,1.83,0,0,0,.85,1.09,2.13,2.13,0,0,0,.7.23,8,8,0,0,0,.94.1l1.26,0a12.72,12.72,0,0,0,1.89-.11,1.8,1.8,0,0,0,1-.46,1.3,1.3,0,0,0,.35-.69,6.4,6.4,0,0,0,.08-1.22h2a3.94,3.94,0,0,1-1,3.11,3.45,3.45,0,0,1-1.14.6,6.81,6.81,0,0,1-1.4.25q-.75.06-1.86.06a12.69,12.69,0,0,1-2.87-.31,3.6,3.6,0,0,1-1.9-1,4.86,4.86,0,0,1-.9-2.25,22.25,22.25,0,0,1-.2-3.15,18.41,18.41,0,0,1,.32-3.28,3.5,3.5,0,0,1,.93-1.9,3.81,3.81,0,0,1,1.85-1,12.19,12.19,0,0,1,2.67-.26c2,0,3.4.32,4.16.95a3.48,3.48,0,0,1,1,1.62A7.38,7.38,0,0,1,578.44,202.94Zm-2,.66c0-.91-.08-1.6-.14-2.06a2.31,2.31,0,0,0-.49-1.16c-.33-.42-1.22-.64-2.67-.64h-.38a14.73,14.73,0,0,0-1.82.18,2.1,2.1,0,0,0-1.1.58,6.19,6.19,0,0,0-.65,3.1Z"/><path class="cls-2" d="M272.16,76.82A14.12,14.12,0,0,0,268,68.68l0,0,0,0a15.16,15.16,0,0,0-5-3,25.28,25.28,0,0,0-6-1.35,64.26,64.26,0,0,0-7.05-.34c-9.69,0-15.94,1.94-19.11,5.92a17.07,17.07,0,0,0-3.3,8.53A88.9,88.9,0,0,0,226.9,90c0,8,1.15,13.53,3.52,16.93a12.39,12.39,0,0,0,5.35,4.39,22.32,22.32,0,0,0,6.59,1.73,71.15,71.15,0,0,0,7.43.35,61.32,61.32,0,0,0,9.72-.67,17,17,0,0,0,7.8-3.25l0,0,0,0a14,14,0,0,0,4.8-8.7A70.73,70.73,0,0,0,273,88.87v-.06A98.28,98.28,0,0,0,272.16,76.82ZM256.24,99.26a2.82,2.82,0,0,1-1.74.87,25.66,25.66,0,0,1-4.55.35,22.88,22.88,0,0,1-4.81-.42A2.13,2.13,0,0,1,243.57,99l0,0,0,0a7.73,7.73,0,0,1-.87-3.2c-.17-1.69-.26-4-.26-6.86a76.14,76.14,0,0,1,.31-7.66,5.22,5.22,0,0,1,.95-2.92,3,3,0,0,1,1.73-1,37.8,37.8,0,0,1,4.56-.51,36.82,36.82,0,0,1,4.73.54,2.54,2.54,0,0,1,1.6,1,6.19,6.19,0,0,1,1,3.23c.18,1.92.27,4.4.27,7.36a67,67,0,0,1-.29,7.42A7.54,7.54,0,0,1,256.24,99.26Z"/><polygon class="cls-2" points="287.59 45.76 285.1 45.76 285.1 48.25 285.1 110.42 285.1 112.91 287.59 112.91 298.03 112.91 300.52 112.91 300.52 110.42 300.52 48.25 300.52 45.76 298.03 45.76 287.59 45.76"/><path class="cls-2" d="M345,64.42h-2.49V92.28c0,2.8-.47,4.91-1.36,6.09a4.78,4.78,0,0,1-2.25,1.63,16,16,0,0,1-4.42.48,12,12,0,0,1-3.14-.23,3.42,3.42,0,0,1-1.16-.68,1.48,1.48,0,0,1-.39-.87,20.8,20.8,0,0,1-.21-3.34V64.42H314.11v34.3c0,4.82,1.52,8.54,4.52,11.06s7.07,3.64,12.49,3.64c5,0,8.89-1,11.75-3v2.47h15V64.42H345Z"/><path class="cls-2" d="M394.52,91.29H392v5.22c0,4-1.58,4-2.73,4a5.73,5.73,0,0,1-1.8-.19l0-.09a10.12,10.12,0,0,1-.24-2.69V77.43H404v-13H387.23v-10H371.81v10h-5.39v13h5.39v19.9c0,5.92,1.18,10,3.6,12.43a11,11,0,0,0,6.19,3,43.24,43.24,0,0,0,7.7.61c6.63,0,11.29-1.7,13.84-5l0,0,0,0c2-2.83,3-7.59,3-14.54V91.29h-11.7Z"/><polygon class="cls-2" points="417.24 64.42 414.75 64.42 414.75 66.91 414.75 110.42 414.75 112.91 417.24 112.91 427.6 112.91 430.09 112.91 430.09 110.42 430.09 66.91 430.09 64.42 427.6 64.42 417.24 64.42"/><polygon class="cls-2" points="417.24 45.76 414.75 45.76 414.75 48.25 414.75 57.11 414.75 59.6 417.24 59.6 427.6 59.6 430.09 59.6 430.09 57.11 430.09 48.25 430.09 45.76 427.6 45.76 417.24 45.76"/><path class="cls-2" d="M486.88,76.82a14.12,14.12,0,0,0-4.14-8.14l0,0,0,0a15.16,15.16,0,0,0-5-3,25.28,25.28,0,0,0-6-1.35,64.26,64.26,0,0,0-7.05-.34c-9.69,0-15.94,1.94-19.11,5.92a17.07,17.07,0,0,0-3.3,8.53A88.9,88.9,0,0,0,441.62,90c0,8,1.15,13.53,3.52,16.93a12.39,12.39,0,0,0,5.35,4.39,22.32,22.32,0,0,0,6.59,1.73,71.15,71.15,0,0,0,7.43.35,61.32,61.32,0,0,0,9.72-.67,17,17,0,0,0,7.8-3.25l0,0,0,0a14,14,0,0,0,4.8-8.7,70.73,70.73,0,0,0,.84-11.87v-.06A98.28,98.28,0,0,0,486.88,76.82ZM471,99.26a2.82,2.82,0,0,1-1.74.87,25.66,25.66,0,0,1-4.55.35,22.88,22.88,0,0,1-4.81-.42A2.13,2.13,0,0,1,458.29,99l0,0,0,0a7.63,7.63,0,0,1-.87-3.19c-.17-1.69-.26-4-.26-6.86a76.14,76.14,0,0,1,.31-7.66,5.22,5.22,0,0,1,.95-2.92,3,3,0,0,1,1.73-1,37.8,37.8,0,0,1,4.56-.51,36.82,36.82,0,0,1,4.73.54,2.49,2.49,0,0,1,1.59,1,6.06,6.06,0,0,1,1,3.23c.18,1.92.27,4.4.27,7.36a67.12,67.12,0,0,1-.29,7.42A7.54,7.54,0,0,1,471,99.26Z"/><path class="cls-2" d="M542.79,72.4A11.55,11.55,0,0,0,537.2,66c-2.55-1.37-6-2.07-10.49-2.13h0a40.76,40.76,0,0,0-6.1.41,13.45,13.45,0,0,0-5.42,2.18V64.42h-15.5v48.49h15.5V86.8a28.82,28.82,0,0,1,.45-5.88,4.3,4.3,0,0,1,1-2.19l.05,0,0-.05c1.16-1.24,3.28-1.86,6.31-1.86a9.12,9.12,0,0,1,4,.6,2,2,0,0,1,1.1,1.27,14.77,14.77,0,0,1,.49,4.42v29.85h15.51V81.74A27.92,27.92,0,0,0,542.79,72.4Z"/><path class="cls-3" d="M451.85,148.34V141.9h6.24l-6.24-16.11-8.76,22.55h-7.35l12.89-32.22h6.44L468,148.34Z"/><path class="cls-3" d="M480.85,148.34H474.4V116.12h32.22v19.33H480.85ZM500.18,129v-6.44H480.85V129Z"/><path class="cls-3" d="M519.51,148.34h-6.45V116.12h32.22v19.33H519.51ZM538.84,129v-6.44H519.51V129Z"/><path class="cls-4" d="M210.32,79.39a2.1,2.1,0,1,1,1-2.8A2.1,2.1,0,0,1,210.32,79.39Z"/><path class="cls-5" d="M219.55,96.18a88.54,88.54,0,1,1-8.12-44.38s2.31,4.39-1.5,6.37-6.12-.34-7.09-2.34c-19.09-39.26-65.59-56.55-105.12-38A79,79,0,1,0,209.43,77.49"/><path class="cls-4" d="M220.44,98.09a2.1,2.1,0,1,1,1-2.8A2.09,2.09,0,0,1,220.44,98.09Z"/><circle class="cls-6" cx="132.19" cy="89.38" r="70.5" transform="translate(-24.48 119.65) rotate(-45)"/><g class="cls-7"><path class="cls-8" d="M93.73,43.2a2.54,2.54,0,0,1-1.65-.61A2.57,2.57,0,0,1,91.77,39c.45-.53,11.25-13,35.14-15a2.57,2.57,0,0,1,.43,5.12C105.7,30.88,95.79,42.19,95.69,42.3A2.55,2.55,0,0,1,93.73,43.2Z"/></g><path class="cls-8" d="M131.49,38.58q20.26,0,30.82,11.52,7.77,9.43,7.77,19.85H145.37a9.7,9.7,0,0,0-3.5-6.46c-1.88-1.43-5.33-2.15-10.38-2.15q-11.93,0-13.32,5.27a7.22,7.22,0,0,1-.28,1.11q0,6.18,14.71,8.89,20.42,4.86,26.93,9.44,13.88,7.77,13.88,23,0,19.77-21.1,28a60.52,60.52,0,0,1-19.43,3.06q-16.17,0-27.76-7.77-10.75-8-12.91-17.22a37.87,37.87,0,0,1-1.11-9.71h23.32q2.77,7.22,6.28,9.16t10.52,1.94h3.33q12.63-.9,12.63-6.66,0-6.6-20.68-9.72-17.91-4.15-25-8.88Q91,83.61,91,70.22q0-19.77,20-28A64,64,0,0,1,131.49,38.58Z"/></g></g></svg>